# xmcd
#
# Track frame offsets:
#	150
#	13000
#	29896
#	47364
#	62614
#	82872
#	99345
#	117965
#	135340
#	156276
#	172279
#	186379
#	203662
#	220015
#	235113
#	252383
#	268543
#	281999
#	298503
#	316424
#
# Disc length: 4486 seconds
# Revision: 1
# Processed by: cddbd v1.5.2PL0 Copyright (c) Steve Scherf et al.
# Submitted via: dBpowerAMP V12.0
#
DISCID=22118414
DTITLE=LeAnn Rimes - All-Time Greatest Hits
DYEAR=2015
DGENRE=Country
TTITLE0=Blue
TTITLE1=One Way Ticket
TTITLE2=Unchained Melody
TTITLE3=The Light In Your Eyes
TTITLE4=How Do I Live
TTITLE5=You Light Up My Life
TTITLE6=Amazing Grace
TTITLE7=On The Side Of Angels
TTITLE8=Commitment
TTITLE9=Nothin' Under The Moon
TTITLE10=Big Deal
TTITLE11=I Need You
TTITLE12=Can't Fight The Moonlight
TTITLE13=But I Do Love You
TTITLE14=The Right Kind Of Wrong
TTITLE15=Life Goes On
TTITLE16=Nothin' 'Bout Love Makes Sense
TTITLE17=Probably Wouldn't Be This Way
TTITLE18=Something's Gotta Give
TTITLE19=Nothin' Better To Do
EXTD=
EXTT0=
EXTT1=
EXTT2=
EXTT3=
EXTT4=
EXTT5=
EXTT6=
EXTT7=
EXTT8=
EXTT9=
EXTT10=
EXTT11=
EXTT12=
EXTT13=
EXTT14=
EXTT15=
EXTT16=
EXTT17=
EXTT18=
EXTT19=
PLAYORDER=
